<svg version="1.1" viewBox="0.0 0.0 480.0 480.0" fill="none" stroke="none" stroke-linecap="square" stroke-miterlimit="10" xmlns:xlink="http://www.w3.org/1999/xlink" xmlns="http://www.w3.org/2000/svg"><clipPath id="g38dba9b5960_0_285.0"><path d="m0 0l480.0 0l0 480.0l-480.0 0l0 -480.0z" clip-rule="nonzero"/></clipPath><g clip-path="url(#g38dba9b5960_0_285.0)"><path fill="#000000" fill-opacity="0.0" d="m0 0l480.0 0l0 480.0l-480.0 0z" fill-rule="evenodd"/><path fill="#000000" fill-opacity="0.0" d="m8.861066 263.16257l253.10237 0l0 98.677185l-253.10237 0z" fill-rule="evenodd"/><path fill="#a4c2f4" d="m27.78294 316.3052l0 19.6875l-4.1875 0l0 -46.0l22.890625 0q5.265625 0 9.015625 0.828125q3.75 0.8125 6.140625 2.46875q2.3906288 1.65625 3.5000038 4.140625q1.109375 2.46875 1.109375 5.78125q0 5.15625 -2.7187538 8.265625q-2.71875 3.09375 -8.734375 4.234375l15.703129 20.28125l-5.265625 0l-14.828129 -19.8125q-0.9375 0.0625 -1.90625 0.09375q-0.96875 0.03125 -2.015625 0.03125l-18.703125 0zm34.140625 -13.09375q0 -2.9375 -1.046875 -4.765625q-1.03125 -1.828125 -3.375 -2.828125q-2.34375 -1.0 -6.140625 -1.34375q-3.796875 -0.359375 -9.328125 -0.359375l-14.25 0l0 18.46875l14.125 0q5.515625 0 9.328125 -0.3125q3.828125 -0.3125 6.203125 -1.296875q2.375 -1.0 3.421875 -2.78125q1.0625 -1.796875 1.0625 -4.78125z" fill-rule="nonzero"/><path fill="#6d9eeb" d="m135.91167 313.02396q0 6.203125 -2.25 10.703125q-2.234375 4.5 -6.15625 7.4375q-3.90625 2.921875 -9.234375 4.328125q-5.328125 1.40625 -11.484375 1.40625q-6.1875 0 -11.546875 -1.40625q-5.359375 -1.40625 -9.3125 -4.328125q-3.953125 -2.9375 -6.203125 -7.4375q-2.234375 -4.5 -2.234375 -10.703125q0 -4.109375 1.03125 -7.46875q1.046875 -3.375 2.921875 -6.03125q1.875 -2.671875 4.53125 -4.609375q2.671875 -1.9375 5.9375 -3.21875q3.265625 -1.296875 7.0 -1.90625q3.75 -0.625 7.875 -0.625q6.15625 0 11.484375 1.40625q5.328125 1.40625 9.234375 4.328125q3.921875 2.921875 6.15625 7.4375q2.25 4.5 2.25 10.6875zm-4.3125 0q0 -4.890625 -1.59375 -8.640625q-1.59375 -3.75 -4.703125 -6.296875q-3.109375 -2.5625 -7.75 -3.890625q-4.640625 -1.328125 -10.765625 -1.328125q-6.125 0 -10.796875 1.34375q-4.671875 1.34375 -7.828125 3.90625q-3.140625 2.5625 -4.75 6.328125q-1.59375 3.765625 -1.59375 8.578125q0 4.890625 1.59375 8.640625q1.609375 3.75 4.75 6.3125q3.15625 2.5625 7.828125 3.890625q4.671875 1.3125 10.796875 1.3125q6.125 0 10.765625 -1.3125q4.640625 -1.328125 7.75 -3.890625q3.109375 -2.5625 4.703125 -6.3125q1.59375 -3.75 1.59375 -8.640625z" fill-rule="nonzero"/><path fill="#4a86e8" d="m193.76003 323.3052q0 2.671875 -0.703125 4.65625q-0.703125 1.96875 -1.96875 3.390625q-1.25 1.421875 -3.015625 2.3125q-1.75 0.890625 -3.859375 1.40625q-2.09375 0.515625 -4.515625 0.71875q-2.40625 0.203125 -4.984375 0.203125l-26.546875 0l0 -46.0l25.9375 0q1.984375 0 3.953125 0.171875q1.984375 0.171875 3.796875 0.625q1.828125 0.4375 3.375 1.25q1.5625 0.796875 2.71875 2.109375q1.15625 1.296875 1.8125 3.140625q0.65625 1.84375 0.65625 4.359375q0 2.234375 -0.5625 3.875q-0.546875 1.640625 -1.671875 2.8125q-1.109375 1.171875 -2.859375 1.9375q-1.734375 0.75 -4.078125 1.171875q3.34375 0.234375 5.71875 1.140625q2.375 0.90625 3.875 2.421875q1.515625 1.5 2.21875 3.59375q0.703125 2.09375 0.703125 4.703125zm-7.265625 -21.59375q0 -0.96875 -0.140625 -1.9375q-0.125 -0.96875 -0.59375 -1.859375q-0.46875 -0.890625 -1.359375 -1.65625q-0.890625 -0.78125 -2.4375 -1.328125q-1.53125 -0.546875 -3.796875 -0.859375q-2.25 -0.328125 -5.421875 -0.328125l-20.390625 0l0 16.078125l20.390625 0q4.515625 0 7.21875 -0.65625q2.71875 -0.65625 4.171875 -1.75q1.453125 -1.109375 1.90625 -2.578125q0.453125 -1.484375 0.453125 -3.125zm2.875 21.53125q0 -2.609375 -0.90625 -4.453125q-0.890625 -1.84375 -2.765625 -3.015625q-1.875 -1.171875 -4.828125 -1.71875q-2.9375 -0.5625 -7.0 -0.5625l-21.515625 0l0 18.71875l22.09375 0q4.1875 0 7.046875 -0.484375q2.859375 -0.484375 4.609375 -1.578125q1.765625 -1.09375 2.515625 -2.796875q0.75 -1.703125 0.75 -4.109375z" fill-rule="nonzero"/><path fill="#000000" fill-opacity="0.0" d="m296.9613 263.7379l253.10236 0l0 98.677155l-253.10236 0z" fill-rule="evenodd"/><path fill="#1155cc" d="m330.3363 294.38055l0 42.1875l-4.140625 0l0 -42.1875l-20.921875 0l0 -3.8125l45.984375 0l0 3.8125l-20.921875 0z" fill-rule="nonzero"/><path fill="#1c4587" d="m397.46167 297.36493q-1.296875 -0.640625 -3.015625 -1.359375q-1.703125 -0.71875 -3.90625 -1.28125q-2.1875 -0.578125 -4.9375 -0.953125q-2.734375 -0.390625 -6.078125 -0.390625q-4.046875 0 -7.21875 0.46875q-3.15625 0.46875 -5.359375 1.453125q-2.1875 0.984375 -3.34375 2.5q-1.15625 1.5 -1.15625 3.578125q0 1.75 1.078125 3.0625q1.09375 1.296875 2.953125 2.296875q1.859375 1.0 4.34375 1.828125q2.5 0.8125 5.296875 1.53125q2.796875 0.71875 5.75 1.46875q2.96875 0.734375 5.765625 1.59375q2.796875 0.84375 5.296875 1.90625q2.5 1.046875 4.34375 2.453125q1.859375 1.40625 2.953125 3.21875q1.09375 1.796875 1.09375 4.171875q0 2.578125 -0.984375 4.515625q-0.96875 1.921875 -2.625 3.3125q-1.65625 1.390625 -3.890625 2.3125q-2.21875 0.90625 -4.75 1.453125q-2.515625 0.53125 -5.21875 0.75q-2.6875 0.21875 -5.296875 0.21875q-6.0 0 -10.875 -0.875q-4.859375 -0.875 -9.28125 -2.375l0 -5.125q4.546875 2.71875 9.609375 3.71875q5.078125 1.0 10.671875 1.0q3.953125 0 7.296875 -0.46875q3.359375 -0.46875 5.796875 -1.484375q2.4375 -1.015625 3.796875 -2.65625q1.359375 -1.640625 1.359375 -4.015625q0 -1.921875 -1.09375 -3.359375q-1.078125 -1.4375 -2.9375 -2.515625q-1.859375 -1.09375 -4.359375 -1.921875q-2.484375 -0.84375 -5.265625 -1.5625q-2.78125 -0.71875 -5.75 -1.40625q-2.953125 -0.6875 -5.734375 -1.484375q-2.78125 -0.8125 -5.28125 -1.8125q-2.484375 -1.015625 -4.34375 -2.359375q-1.859375 -1.359375 -2.953125 -3.125q-1.078125 -1.78125 -1.078125 -4.125q0 -2.3125 0.859375 -4.09375q0.875 -1.796875 2.390625 -3.09375q1.53125 -1.3125 3.5625 -2.203125q2.046875 -0.890625 4.375 -1.40625q2.328125 -0.515625 4.84375 -0.75q2.515625 -0.234375 4.953125 -0.234375q2.671875 0 5.0625 0.234375q2.40625 0.234375 4.625 0.625q2.234375 0.375 4.359375 0.875q2.125 0.5 4.296875 1.078125l0 4.8125z" fill-rule="nonzero"/><path fill="#000000" fill-opacity="0.0" d="m286.18637 196.81311l275.59055 0l0 96.566925l-275.59055 0z" fill-rule="evenodd"/><path fill="#ff9900" d="m345.952 254.1745q0 3.453125 -1.453125 6.28125q-1.453125 2.828125 -4.359375 4.859375q-2.890625 2.015625 -7.25 3.125q-4.34375 1.109375 -10.140625 1.109375q-5.78125 0 -10.140625 -1.109375q-4.359375 -1.109375 -7.265625 -3.125q-2.90625 -2.03125 -4.375 -4.859375q-1.453125 -2.828125 -1.453125 -6.28125l0 -31.53125l4.1875 0l0 31.875q0 2.3125 1.21875 4.375q1.21875 2.046875 3.625 3.59375q2.421875 1.53125 5.96875 2.4375q3.546875 0.90625 8.234375 0.90625q4.65625 0 8.203125 -0.90625q3.546875 -0.90625 5.953125 -2.4375q2.421875 -1.546875 3.640625 -3.59375q1.21875 -2.0625 1.21875 -4.375l0 -31.875l4.1875 0l0 31.53125l0 0z" fill-rule="nonzero"/><path fill="#f6b26b" d="m398.17395 229.44012q-1.296875 -0.640625 -3.015625 -1.359375q-1.703125 -0.71875 -3.90625 -1.28125q-2.1875 -0.578125 -4.9375 -0.953125q-2.734375 -0.390625 -6.078125 -0.390625q-4.046875 0 -7.21875 0.46875q-3.15625 0.46875 -5.359375 1.453125q-2.1875 0.984375 -3.34375 2.5q-1.15625 1.5 -1.15625 3.578125q0 1.75 1.078125 3.0625q1.09375 1.296875 2.953125 2.296875q1.859375 1.0 4.34375 1.828125q2.5 0.8125 5.296875 1.53125q2.796875 0.71875 5.75 1.46875q2.96875 0.734375 5.765625 1.59375q2.796875 0.84375 5.296875 1.90625q2.5 1.046875 4.34375 2.453125q1.859375 1.40625 2.953125 3.21875q1.09375 1.796875 1.09375 4.171875q0 2.578125 -0.984375 4.515625q-0.96875 1.921875 -2.625 3.3125q-1.65625 1.390625 -3.890625 2.3125q-2.21875 0.90625 -4.75 1.453125q-2.515625 0.53125 -5.21875 0.75q-2.6875 0.21875 -5.296875 0.21875q-6.0 0 -10.875 -0.875q-4.859375 -0.875 -9.28125 -2.375l0 -5.125q4.546875 2.71875 9.609375 3.71875q5.078125 1.0 10.671875 1.0q3.953125 0 7.296875 -0.46875q3.359375 -0.46875 5.796875 -1.484375q2.4375 -1.015625 3.796875 -2.65625q1.359375 -1.640625 1.359375 -4.015625q0 -1.921875 -1.09375 -3.359375q-1.078125 -1.4375 -2.9375 -2.515625q-1.859375 -1.09375 -4.359375 -1.921875q-2.484375 -0.84375 -5.265625 -1.5625q-2.78125 -0.71875 -5.75 -1.40625q-2.953125 -0.6875 -5.734375 -1.484375q-2.78125 -0.8125 -5.28125 -1.8125q-2.484375 -1.015625 -4.34375 -2.359375q-1.859375 -1.359375 -2.953125 -3.125q-1.078125 -1.78125 -1.078125 -4.125q0 -2.3125 0.859375 -4.09375q0.875 -1.796875 2.390625 -3.09375q1.53125 -1.3125 3.5625 -2.203125q2.046875 -0.890625 4.375 -1.40625q2.328125 -0.515625 4.84375 -0.75q2.515625 -0.234375 4.953125 -0.234375q2.671875 0 5.0625 0.234375q2.40625 0.234375 4.625 0.625q2.234375 0.375 4.359375 0.875q2.125 0.5 4.296875 1.078125l0 4.8125z" fill-rule="nonzero"/><path fill="#ffd966" d="m433.6245 226.45575l0 42.1875l-4.140625 0l0 -42.1875l-20.921875 0l0 -3.8125l45.984375 0l0 3.8125l-20.921875 0z" fill-rule="nonzero"/><path fill="#ffe599" d="m245.36894 209.63478c-32.027573 113.32283 -156.93504 0 0 -145.70079c156.93504 145.70079 32.027542 259.02362 0 145.70079z" fill-rule="evenodd"/><path fill="#ffd966" d="m190.61555 262.2617l0 0c-30.22345 -30.223465 -30.22345 -79.22536 0 -109.44882q27.362213 -27.362206 54.72441 -54.724403q27.362213 27.362198 54.724426 54.724403l0 0c30.22345 30.223465 30.22345 79.22536 0 109.44882l0 0c-30.22348 30.22345 -79.22537 30.22345 -109.44884 0z" fill-rule="evenodd"/><path fill="#f6b26b" d="m203.55574 272.3897l0 0c-23.717804 -23.717804 -23.717804 -62.17195 0 -85.889755q21.472443 -21.472443 42.944885 -42.944885q21.472458 21.472443 42.94487 42.944885l0 0c23.717804 23.717804 23.717804 62.17195 0 85.889755l0 0c-23.717804 23.717804 -62.17195 23.717804 -85.889755 0z" fill-rule="evenodd"/><path fill="#ff9900" d="m212.34311 279.5106l0 0c-19.108185 -19.108185 -19.108185 -50.088654 0 -69.19684q17.29921 -17.29921 34.59842 -34.59842q17.299225 17.29921 34.59842 34.59842l0 0c19.108185 19.108185 19.108185 50.088654 0 69.19684l0 0c-19.108185 19.108185 -50.088654 19.108185 -69.19684 0z" fill-rule="evenodd"/><path fill="#4a86e8" d="m193.90224 312.48245l0 0c0 -32.51956 26.36232 -58.881897 58.881897 -58.881897l0 0c15.61644 0 30.593277 6.2036133 41.635788 17.246124c11.04248 11.04248 17.246094 26.019318 17.246094 41.635773l0 0c0 32.51956 -26.362305 58.881897 -58.88188 58.881897l0 0c-32.519577 0 -58.881897 -26.362335 -58.881897 -58.881897z" fill-rule="evenodd"/><path stroke="#ffffff" stroke-width="5.847769028871391" stroke-linejoin="round" stroke-linecap="butt" d="m193.90224 312.48245l0 0c0 -32.51956 26.36232 -58.881897 58.881897 -58.881897l0 0c15.61644 0 30.593277 6.2036133 41.635788 17.246124c11.04248 11.04248 17.246094 26.019318 17.246094 41.635773l0 0c0 32.51956 -26.362305 58.881897 -58.88188 58.881897l0 0c-32.519577 0 -58.881897 -26.362335 -58.881897 -58.881897z" fill-rule="evenodd"/><path fill="#6d9eeb" d="m199.89243 305.7946l0 0c0 -25.413788 20.60196 -46.015747 46.015747 -46.015747l0 0c12.204132 0 23.908417 4.8480835 32.538055 13.477722c8.629639 8.629608 13.477692 20.333893 13.477692 32.538025l0 0c0 25.413818 -20.60196 46.015747 -46.015747 46.015747l0 0c-25.413788 0 -46.015747 -20.601929 -46.015747 -46.015747z" fill-rule="evenodd"/><path fill="#a4c2f4" d="m199.89252 301.086l0 0c0 -22.813293 18.50792 -41.3071 41.338593 -41.3071l0 0c10.963669 0 21.478302 4.3519897 29.230804 12.098572c7.752472 7.746582 12.107788 18.253204 12.107788 29.208527l0 0c0 22.813263 -18.507935 41.307068 -41.338593 41.307068l0 0c-22.830673 0 -41.338593 -18.493805 -41.338593 -41.307068z" fill-rule="evenodd"/><path fill="#c9daf8" d="m199.89253 297.21198l0 0c0 -20.673706 16.773453 -37.433075 37.46457 -37.433075l0 0c9.936218 0 19.46547 3.9438477 26.49144 10.963898c7.0259705 7.0200806 10.973114 16.54132 10.973114 26.469177l0 0c0 20.673737 -16.773438 37.433075 -37.464554 37.433075l0 0c-20.691116 0 -37.46457 -16.759338 -37.46457 -37.433075z" fill-rule="evenodd"/><path fill="#ffffff" d="m199.89253 293.7159l0 0c0 -18.74289 15.208221 -33.93701 33.968506 -33.93701l0 0c9.009003 0 17.649033 3.5755005 24.019363 9.939941c6.370331 6.3644104 9.949127 14.996429 9.949127 23.99707l0 0c0 18.74289 -15.208206 33.93701 -33.96849 33.93701l0 0c-18.760284 0 -33.968506 -15.194122 -33.968506 -33.93701z" fill-rule="evenodd"/><path fill="#ffffff" d="m135.66913 146.5413l0 0c-15.107384 -56.38524 2.2583313 -110.02646 38.7874 -119.81103l0 0c17.541885 -4.698717 37.247253 1.5513649 54.78116 17.3753c17.53392 15.823936 31.460098 39.925514 38.71492 67.002655l0 0c15.107361 56.385223 -2.2583618 110.02644 -38.787415 119.81102l0 0c-36.529068 9.784576 -78.38869 -27.992722 -93.49606 -84.377945z" fill-rule="evenodd"/><path stroke="#ffffff" stroke-width="1.4619422572178478" stroke-linejoin="round" stroke-linecap="butt" d="m135.66913 146.5413l0 0c-15.107384 -56.38524 2.2583313 -110.02646 38.7874 -119.81103l0 0c17.541885 -4.698717 37.247253 1.5513649 54.78116 17.3753c17.53392 15.823936 31.460098 39.925514 38.71492 67.002655l0 0c15.107361 56.385223 -2.2583618 110.02644 -38.787415 119.81102l0 0c-36.529068 9.784576 -78.38869 -27.992722 -93.49606 -84.377945z" fill-rule="evenodd"/></g></svg>